<svg xmlns="http://www.w3.org/2000/svg" viewBox="0 0 390 844" role="img" aria-labelledby="review-in-progress-title">
  <title id="review-in-progress-title">Review in Progress</title>
  <desc>Code review screen with draft comments during focus session</desc>

  <defs>
    <filter id="shadow" x="-20%" y="-20%" width="140%" height="140%">
      <feDropShadow dx="0" dy="4" stdDeviation="16" flood-color="#0F1012" flood-opacity="0.15"/>
    </filter>
    <filter id="cardShadow" x="-10%" y="-10%" width="120%" height="130%">
      <feDropShadow dx="0" dy="2" stdDeviation="8" flood-color="#000" stroke-opacity="0.12"/>
    </filter>
    <linearGradient id="tealGradient" x1="0%" y1="0%" x2="100%" y2="100%">
      <stop offset="0%" stop-color="#7EBAB5"/>
      <stop offset="100%" stop-color="#0A9396"/>
    </linearGradient>
    <linearGradient id="orangeGradient" x1="0%" y1="0%" x2="100%" y2="100%">
      <stop offset="0%" stop-color="#FF6B3D"/>
      <stop offset="100%" stop-color="#F07B3F"/>
    </linearGradient>
    <linearGradient id="draftGradient" x1="0%" y1="0%" x2="0%" y2="100%">
      <stop offset="0%" stop-color="#FF6B3D" stop-opacity="0.15"/>
      <stop offset="100%" stop-color="#FF6B3D" stop-opacity="0.05"/>
    </linearGradient>
  </defs>

  <!-- Phone frame -->
  <rect x="0" y="0" width="390" height="844" rx="44" fill="#0F1012"/>
  <rect x="1" y="1" width="388" height="842" rx="43" fill="#0F1012"/>

  <!-- Status bar -->
  <rect x="1" y="1" width="388" height="53" rx="43" fill="#0F1012"/>
  <text x="54" y="36" font-family="-apple-system, BlinkMacSystemFont, 'SF Pro', sans-serif" font-size="15" font-weight="600" fill="#F6F5F5">9:41</text>

  <!-- Focus mode indicator -->
  <rect x="120" y="60" width="150" height="28" rx="14" fill="url(#tealGradient)"/>
  <circle cx="138" cy="74" r="6" fill="white" fill-opacity="0.9"/>
  <text x="195" y="79" font-family="-apple-system, BlinkMacSystemFont, 'SF Pro', sans-serif" font-size="13" font-weight="600" fill="white" text-anchor="middle">FOCUS MODE</text>

  <!-- Timer -->
  <text x="340" y="79" font-family="-apple-system, BlinkMacSystemFont, 'SF Pro', sans-serif" font-size="13" fill="#7EBAB5" text-anchor="end">1:28:45</text>

  <!-- PR header -->
  <rect x="16" y="100" width="358" height="80" rx="14" fill="#1E1E1E"/>
  <rect x="28" y="112" width="36" height="36" rx="8" fill="#24292F"/>
  <path d="M42 124 L50 116 L58 124 M50 116 V136" stroke="#FFFFFF" stroke-width="2" stroke-linecap="round" stroke-linejoin="round" fill="none"/>
  <text x="76" y="132" font-family="-apple-system, BlinkMacSystemFont, 'SF Pro', sans-serif" font-size="14" font-weight="600" fill="#F6F5F5">feat: Add focus analytics</text>
  <text x="76" y="150" font-family="-apple-system, BlinkMacSystemFont, 'SF Pro', sans-serif" font-size="12" fill="#7EBAB5">focalpoint/core #247</text>
  <circle cx="356" cy="130" r="10" fill="#FF6B3D"/>
  <text x="356" y="134" font-family="-apple-system, BlinkMacSystemFont, 'SF Pro', sans-serif" font-size="11" font-weight="600" fill="#FFFFFF" text-anchor="middle">3</text>

  <!-- Code diff section -->
  <g transform="translate(16, 195)">
    <text x="0" y="0" font-family="-apple-system, BlinkMacSystemFont, 'SF Pro', sans-serif" font-size="13" font-weight="600" fill="#666666">src/analytics/focus_tracker.rs</text>

    <!-- Code lines -->
    <g transform="translate(0, 16)">
      <rect x="0" y="0" width="358" height="28" rx="0" fill="#1A1A1A"/>
      <text x="12" y="18" font-family="SF Mono, Menlo, monospace" font-size="11" fill="#6E7681"> 1</text>
      <text x="32" y="18" font-family="SF Mono, Menlo, monospace" font-size="11" fill="#7EBAB5">use</text>
      <text x="60" y="18" font-family="SF Mono, Menlo, monospace" font-size="11" fill="#F6F5F5"> std::time::Duration;</text>
    </g>

    <g transform="translate(0, 44)">
      <rect x="0" y="0" width="358" height="28" rx="0" fill="#1A1A1A"/>
      <text x="12" y="18" font-family="SF Mono, Menlo, monospace" font-size="11" fill="#6E7681"> 2</text>
      <text x="32" y="18" font-family="SF Mono, Menlo, monospace" font-size="11" fill="#7EBAB5">use</text>
      <text x="60" y="18" font-family="SF Mono, Menlo, monospace" font-size="11" fill="#F6F5F5"> crate::models::Session;</text>
    </g>

    <!-- Added line with draft comment -->
    <g transform="translate(0, 72)">
      <rect x="0" y="0" width="358" height="52" rx="0" fill="url(#draftGradient)" stroke="#FF6B3D" stroke-width="1" stroke-dasharray="4,2"/>
      <rect x="-4" y="0" width="4" height="52" fill="#34C759"/>
      <text x="12" y="18" font-family="SF Mono, Menlo, monospace" font-size="11" fill="#6E7681"> 3</text>
      <text x="32" y="18" font-family="SF Mono, Menlo, monospace" font-size="11" fill="#34C759">+</text>
      <text x="44" y="18" font-family="SF Mono, Menlo, monospace" font-size="11" fill="#7EBAB5">pub</text>
      <text x="72" y="18" font-family="SF Mono, Menlo, monospace" font-size="11" fill="#F6F5F5"> </text>
      <text x="80" y="18" font-family="SF Mono, Menlo, monospace" font-size="11" fill="#7EBAB5">fn</text>
      <text x="104" y="18" font-family="SF Mono, Menlo, monospace" font-size="11" fill="#F6F5F5"> track_focus_session(</text>
    </g>

    <!-- Draft comment bubble -->
    <g filter="url(#cardShadow)">
      <rect x="24" y="130" width="330" height="90" rx="12" fill="#1E1E1E"/>
    </g>
    <rect x="28" y="134" width="8" height="8" fill="#1E1E1E" transform="rotate(45 32 138)"/>
    <text x="44" y="152" font-family="-apple-system, BlinkMacSystemFont, 'SF Pro', sans-serif" font-size="11" font-weight="600" fill="#FF6B3D">DRAFT COMMENT</text>
    <text x="44" y="172" font-family="-apple-system, BlinkMacSystemFont, 'SF Pro', sans-serif" font-size="12" fill="#F6F5F5">Should we add error handling for</text>
    <text x="44" y="190" font-family="-apple-system, BlinkMacSystemFont, 'SF Pro', sans-serif" font-size="12" fill="#F6F5F5">failed API calls here?</text>
    <rect x="44" y="204" width="60" height="8" rx="4" fill="#2A2A2A"/>

    <g transform="translate(230, 142)">
      <rect x="0" y="0" width="32" height="32" rx="16" fill="#FF6B3D"/>
      <text x="16" y="20" font-family="-apple-system, BlinkMacSystemFont, 'SF Pro', sans-serif" font-size="12" font-weight="600" fill="#FFFFFF" text-anchor="middle">You</text>
    </g>

    <g transform="translate(270, 150)">
      <text x="0" y="0" font-family="-apple-system, BlinkMacSystemFont, 'SF Pro', sans-serif" font-size="11" fill="#666666">12:34 PM</text>
    </g>

    <g transform="translate(276, 166)">
      <rect x="0" y="0" width="72" height="28" rx="8" fill="#FF6B3D"/>
      <text x="36" y="18" font-family="-apple-system, BlinkMacSystemFont, 'SF Pro', sans-serif" font-size="12" font-weight="600" fill="#FFFFFF" text-anchor="middle">Post</text>
    </g>
  </g>

  <!-- More code lines -->
  <g transform="translate(16, 430)">
    <g transform="translate(0, 0)">
      <rect x="0" y="0" width="358" height="28" rx="0" fill="#1A1A1A"/>
      <text x="12" y="18" font-family="SF Mono, Menlo, monospace" font-size="11" fill="#6E7681"> 4</text>
      <text x="32" y="18" font-family="SF Mono, Menlo, monospace" font-size="11" fill="#F6F5F5">    session_id: String,</text>
    </g>

    <g transform="translate(0, 28)">
      <rect x="0" y="0" width="358" height="28" rx="0" fill="#1A1A1A"/>
      <text x="12" y="18" font-family="SF Mono, Menlo, monospace" font-size="11" fill="#6E7681"> 5</text>
      <text x="32" y="18" font-family="SF Mono, Menlo, monospace" font-size="11" fill="#F6F5F5">) -> Result<FocusMetrics, Error> {</text>
    </g>

    <g transform="translate(0, 56)">
      <rect x="0" y="0" width="358" height="28" rx="0" fill="#1A1A1A"/>
      <text x="12" y="18" font-family="SF Mono, Menlo, monospace" font-size="11" fill="#6E7681"> 6</text>
      <text x="32" y="18" font-family="SF Mono, Menlo, monospace" font-size="11" fill="#F6F5F5">    let session = Session::get(&session_id)?;</text>
    </g>
  </g>

  <!-- Bottom toolbar -->
  <g filter="url(#cardShadow)">
    <rect x="0" y="770" width="390" height="74" fill="#1A1A1A"/>
  </g>

  <g transform="translate(50, 790)">
    <rect x="0" y="0" width="60" height="36" rx="8" fill="#2A2A2A"/>
    <text x="30" y="24" font-family="-apple-system, BlinkMacSystemFont, 'SF Pro', sans-serif" font-size="13" fill="#F6F5F5" text-anchor="middle">Files</text>
  </g>

  <g transform="translate(130, 790)">
    <rect x="0" y="0" width="60" height="36" rx="8" fill="url(#tealGradient)"/>
    <text x="30" y="24" font-family="-apple-system, BlinkMacSystemFont, 'SF Pro', sans-serif" font-size="13" font-weight="600" fill="#FFFFFF" text-anchor="middle">Comments</text>
    <circle cx="52" cy="6" r="8" fill="#FF6B3D"/>
    <text x="52" y="10" font-family="-apple-system, BlinkMacSystemFont, 'SF Pro', sans-serif" font-size="10" font-weight="600" fill="#FFFFFF" text-anchor="middle">3</text>
  </g>

  <g transform="translate(210, 790)">
    <rect x="0" y="0" width="60" height="36" rx="8" fill="#2A2A2A"/>
    <text x="30" y="24" font-family="-apple-system, BlinkMacSystemFont, 'SF Pro', sans-serif" font-size="13" fill="#F6F5F5" text-anchor="middle">Commits</text>
  </g>

  <g transform="translate(290, 790)">
    <rect x="0" y="0" width="60" height="36" rx="8" fill="#2A2A2A"/>
    <text x="30" y="24" font-family="-apple-system, BlinkMacSystemFont, 'SF Pro', sans-serif" font-size="13" fill="#F6F5F5" text-anchor="middle">Approve</text>
  </g>

  <!-- Home indicator -->
  <rect x="140" y="816" width="110" height="5" rx="2.5" fill="#353A40"/>
</svg>