<svg viewBox="0 0 256 320" xmlns="http://www.w3.org/2000/svg" width="256" height="320">
  <!-- Cape -->
  <path d="M 96 80 Q 80 120 78 160 L 78 180 Q 78 200 96 210 L 160 210 Q 178 200 178 180 L 178 160 Q 176 120 160 80"
    fill="#c94a21" stroke="#0e0f13" stroke-width="2" opacity="1"/>

  <!-- Body -->
  <ellipse cx="128" cy="140" rx="32" ry="36" fill="#c94a21" stroke="#0e0f13" stroke-width="2"/>
  <ellipse cx="128" cy="145" rx="21" ry="24" fill="#ff8b65" opacity="0.4"/>

  <!-- Head -->
  <circle cx="128" cy="60" r="48" fill="#c94a21" stroke="#0e0f13" stroke-width="2"/>
  <!-- Left eye -->
  <circle cx="104" cy="32" r="8" fill="#f2f3f5" stroke="#0e0f13" stroke-width="2"/>
  <circle cx="104" cy="32" r="8" fill="#0e0f13"/>

  <!-- Right eye -->
  <circle cx="152" cy="32" r="8" fill="#f2f3f5" stroke="#0e0f13" stroke-width="2"/>
  <circle cx="152" cy="32" r="8" fill="#0e0f13"/>
  <line x1="118" y1="60" x2="138" y2="60"
    stroke="#0e0f13" stroke-width="2" stroke-linecap="round"/>
  <!-- Badge -->
  <circle cx="200" cy="40" r="12" fill="#e0544a" stroke="#0e0f13" stroke-width="1"/>
  <polygon points="200,32 206,48 194,48" fill="#f2f3f5"/>
</svg>