<svg viewBox="0 0 256 320" xmlns="http://www.w3.org/2000/svg" width="256" height="320">
  <!-- Cape -->
  <path d="M 96 80 Q 80 120 78 160 L 78 180 Q 78 200 96 210 L 160 210 Q 178 200 178 180 L 178 160 Q 176 120 160 80"
    fill="#2bb673" stroke="#0e0f13" stroke-width="2" opacity="1"/>

  <!-- Body -->
  <ellipse cx="128" cy="140" rx="32" ry="36" fill="#2bb673" stroke="#0e0f13" stroke-width="2"/>
  <ellipse cx="128" cy="145" rx="21" ry="24" fill="#ff8b65" opacity="0.4"/>

  <!-- Head -->
  <circle cx="128" cy="60" r="48" fill="#2bb673" stroke="#0e0f13" stroke-width="2"/>
  <!-- Left eye -->
  <circle cx="104" cy="29" r="8" fill="#f2f3f5" stroke="#0e0f13" stroke-width="2"/>
  <circle cx="104" cy="29" r="7.04" fill="#0e0f13"/>

  <!-- Right eye -->
  <circle cx="152" cy="29" r="8" fill="#f2f3f5" stroke="#0e0f13" stroke-width="2"/>
  <circle cx="152" cy="29" r="7.04" fill="#0e0f13"/>
  <!-- Focused brows -->
  <line x1="96" y1="22" x2="112" y2="18" stroke="#0e0f13" stroke-width="2" stroke-linecap="round"/>
  <line x1="144" y1="18" x2="160" y2="22" stroke="#0e0f13" stroke-width="2" stroke-linecap="round"/>
  <!-- Badge -->
  <circle cx="200" cy="40" r="12" fill="#2bb673" stroke="#0e0f13" stroke-width="1"/>
  <text x="200" y="46" text-anchor="middle" font-size="14" fill="#0e0f13" font-weight="bold">+</text>
</svg>