<svg viewBox="0 0 256 320" xmlns="http://www.w3.org/2000/svg" width="256" height="320">
  <!-- Cape -->
  <path d="M 96 80 Q 80 120 78 160 L 78 180 Q 78 200 96 210 L 160 210 Q 178 200 178 180 L 178 160 Q 176 120 160 80"
    fill="#ff6b3d" stroke="#0e0f13" stroke-width="2" opacity="0.8"/>

  <!-- Body -->
  <ellipse cx="128" cy="140" rx="32" ry="36" fill="#ff6b3d" stroke="#0e0f13" stroke-width="2"/>
  <ellipse cx="128" cy="145" rx="21" ry="24" fill="#ff8b65" opacity="0.4"/>

  <!-- Head -->
  <circle cx="128" cy="60" r="48" fill="#ff6b3d" stroke="#0e0f13" stroke-width="2"/>
  <!-- Left eye -->
  <circle cx="104" cy="33" r="8" fill="#f2f3f5" stroke="#0e0f13" stroke-width="2"/>
  <circle cx="104" cy="33" r="8" fill="#0e0f13"/>

  <!-- Right eye -->
  <circle cx="152" cy="30" r="8" fill="#f2f3f5" stroke="#0e0f13" stroke-width="2"/>
  <circle cx="152" cy="30" r="8" fill="#0e0f13"/>
  <!-- Concerned brows -->
  <line x1="96" y1="20" x2="112" y2="24" stroke="#e0544a" stroke-width="2" stroke-linecap="round"/>
  <line x1="144" y1="24" x2="160" y2="20" stroke="#e0544a" stroke-width="2" stroke-linecap="round"/>
  <path d="M 116 61 Q 122 71 128 61 Q 134 59 140 61"
    stroke="#f5a623" stroke-width="2" fill="none" stroke-linecap="round"/>
</svg>