<svg xmlns="http://www.w3.org/2000/svg" width="0" height="0" style="display:none;">
  <symbol id="nav-home-icon" viewBox="0 0 24 24"><!-- home --><svg xmlns="http://www.w3.org/2000/svg" width="24" height="24" viewBox="0 0 24 24" fill="none" stroke="currentColor" stroke-width="2" stroke-linecap="round" stroke-linejoin="round"><path d="m3 9 9-7 9 7v11a2 2 0 0 1-2 2H5a2 2 0 0 1-2-2z"/><polyline points="9 22 9 12 15 12 15 22"/></svg></symbol>
  <symbol id="nav-focus-icon" viewBox="0 0 24 24"><!-- target --><svg xmlns="http://www.w3.org/2000/svg" width="24" height="24" viewBox="0 0 24 24" fill="none" stroke="currentColor" stroke-width="2.25" stroke-linecap="round" stroke-linejoin="round"><circle cx="12" cy="12" r="1"/><circle cx="12" cy="12" r="5"/><circle cx="12" cy="12" r="9"/></svg></symbol>
  <symbol id="nav-rules-icon" viewBox="0 0 24 24"><!-- shield-check --><svg xmlns="http://www.w3.org/2000/svg" width="24" height="24" viewBox="0 0 24 24" fill="none" stroke="currentColor" stroke-width="2" stroke-linecap="round" stroke-linejoin="round"><path d="M12 22s8-4 8-10V5l-8-3-8 3v7c0 6 8 10 8 10z"/><polyline points="9 12 12 15 15 10"/></svg></symbol>
  <symbol id="nav-insights-icon" viewBox="0 0 24 24"><!-- bar-chart-3 --><svg xmlns="http://www.w3.org/2000/svg" width="24" height="24" viewBox="0 0 24 24" fill="none" stroke="currentColor" stroke-width="2" stroke-linecap="round" stroke-linejoin="round"><path d="M3 3v18h18"/><rect x="7" y="10" width="3" height="7"/><rect x="14" y="4" width="3" height="13"/></svg></symbol>
  <symbol id="nav-connectors-icon" viewBox="0 0 24 24"><!-- plug --><svg xmlns="http://www.w3.org/2000/svg" width="24" height="24" viewBox="0 0 24 24" fill="none" stroke="currentColor" stroke-width="2" stroke-linecap="round" stroke-linejoin="round"><circle cx="12" cy="5" r="2"/><path d="M8 7c0 1.1.9 2 2 2h4c1.1 0 2-.9 2-2"/><path d="M9 12v3a3 3 0 0 0 6 0v-3"/><path d="M9 12h6"/></svg></symbol>
  <symbol id="nav-settings-icon" viewBox="0 0 24 24"><!-- settings --><svg xmlns="http://www.w3.org/2000/svg" width="24" height="24" viewBox="0 0 24 24" fill="none" stroke="currentColor" stroke-width="2" stroke-linecap="round" stroke-linejoin="round"><circle cx="12" cy="12" r="3"/><path d="M12 1v6m0 6v6M4.22 4.22l4.24 4.24m5.08 5.08l4.24 4.24M1 12h6m6 0h6M4.22 19.78l4.24-4.24m5.08-5.08l4.24-4.24"/></svg></symbol>
  <symbol id="focus-strict-icon" viewBox="0 0 24 24"><!-- lock --><svg xmlns="http://www.w3.org/2000/svg" width="24" height="24" viewBox="0 0 24 24" fill="none" stroke="#c94a21" stroke-width="2" stroke-linecap="round" stroke-linejoin="round"><rect x="3" y="11" width="18" height="11" rx="2" ry="2"/><path d="M7 11V7a5 5 0 0 1 10 0v4"/></svg></symbol>
  <symbol id="focus-moderate-icon" viewBox="0 0 24 24"><!-- shield --><svg xmlns="http://www.w3.org/2000/svg" width="24" height="24" viewBox="0 0 24 24" fill="none" stroke="#ff6b3d" stroke-width="2" stroke-linecap="round" stroke-linejoin="round"><path d="M12 22s8-4 8-10V5l-8-3-8 3v7c0 6 8 10 8 10z"/></svg></symbol>
  <symbol id="focus-light-icon" viewBox="0 0 24 24"><!-- eye-off --><svg xmlns="http://www.w3.org/2000/svg" width="24" height="24" viewBox="0 0 24 24" fill="none" stroke="#ff8b65" stroke-width="2" stroke-linecap="round" stroke-linejoin="round"><path d="M9.88 9.88a3 3 0 1 0 4.24 4.24"/><path d="M10.73 5.08A10.43 10.43 0 0 1 12 5c7 0 10 7 10 7a13.16 13.16 0 0 1-1.67 2.68M6.61 6.61A13.526 13.526 0 0 0 2 12s3 7 10 7a9.74 9.74 0 0 0 5.39-1.61"/><line x1="2" y1="2" x2="22" y2="22"/></svg></symbol>
  <symbol id="focus-break-icon" viewBox="0 0 24 24"><!-- coffee --><svg xmlns="http://www.w3.org/2000/svg" width="24" height="24" viewBox="0 0 24 24" fill="none" stroke="#2bb673" stroke-width="2" stroke-linecap="round" stroke-linejoin="round"><path d="M18 8h1a4 4 0 0 1 0 8h-1"/><path d="M2 8h16v9a4 4 0 0 1-4 4H6a4 4 0 0 1-4-4V8z"/><line x1="6" y1="1" x2="6" y2="3"/><line x1="10" y1="1" x2="10" y2="3"/><line x1="14" y1="1" x2="14" y2="3"/></svg></symbol>
  <symbol id="focus-sleep-icon" viewBox="0 0 24 24"><!-- moon --><svg xmlns="http://www.w3.org/2000/svg" width="24" height="24" viewBox="0 0 24 24" fill="none" stroke="#6ea8ff" stroke-width="2" stroke-linecap="round" stroke-linejoin="round"><path d="M21 12.79A9 9 0 1 1 11.21 3 7 7 0 0 0 21 12.79z"/></svg></symbol>
  <symbol id="focus-tracking-icon" viewBox="0 0 24 24"><!-- activity --><svg xmlns="http://www.w3.org/2000/svg" width="24" height="24" viewBox="0 0 24 24" fill="none" stroke="currentColor" stroke-width="2" stroke-linecap="round" stroke-linejoin="round"><polyline points="22 12 18 12 15 21 9 3 6 12 2 12"/></svg></symbol>
  <symbol id="focus-timer-icon" viewBox="0 0 24 24"><!-- clock --><svg xmlns="http://www.w3.org/2000/svg" width="24" height="24" viewBox="0 0 24 24" fill="none" stroke="currentColor" stroke-width="2" stroke-linecap="round" stroke-linejoin="round"><circle cx="12" cy="12" r="10"/><polyline points="12 6 12 12 16 14"/></svg></symbol>
  <symbol id="focus-pause-icon" viewBox="0 0 24 24"><!-- pause-circle --><svg xmlns="http://www.w3.org/2000/svg" width="24" height="24" viewBox="0 0 24 24" fill="none" stroke="currentColor" stroke-width="2" stroke-linecap="round" stroke-linejoin="round"><circle cx="12" cy="12" r="10"/><line x1="10" y1="8" x2="10" y2="16"/><line x1="14" y1="8" x2="14" y2="16"/></svg></symbol>
  <symbol id="rule-app-icon" viewBox="0 0 24 24"><!-- box --><svg xmlns="http://www.w3.org/2000/svg" width="24" height="24" viewBox="0 0 24 24" fill="none" stroke="currentColor" stroke-width="2"><circle cx="12" cy="12" r="10"/></svg></symbol>
  <symbol id="rule-time-icon" viewBox="0 0 24 24"><!-- calendar --><svg xmlns="http://www.w3.org/2000/svg" width="24" height="24" viewBox="0 0 24 24" fill="none" stroke="currentColor" stroke-width="2"><circle cx="12" cy="12" r="10"/></svg></symbol>
  <symbol id="rule-location-icon" viewBox="0 0 24 24"><!-- map-pin --><svg xmlns="http://www.w3.org/2000/svg" width="24" height="24" viewBox="0 0 24 24" fill="none" stroke="currentColor" stroke-width="2"><circle cx="12" cy="12" r="10"/></svg></symbol>
  <symbol id="rule-network-icon" viewBox="0 0 24 24"><!-- wifi --><svg xmlns="http://www.w3.org/2000/svg" width="24" height="24" viewBox="0 0 24 24" fill="none" stroke="currentColor" stroke-width="2"><circle cx="12" cy="12" r="10"/></svg></symbol>
  <symbol id="rule-penalty-icon" viewBox="0 0 24 24"><!-- zap --><svg xmlns="http://www.w3.org/2000/svg" width="24" height="24" viewBox="0 0 24 24" fill="none" stroke="#e0544a" stroke-width="2"><circle cx="12" cy="12" r="10"/></svg></symbol>
  <symbol id="rule-reward-icon" viewBox="0 0 24 24"><!-- trophy --><svg xmlns="http://www.w3.org/2000/svg" width="24" height="24" viewBox="0 0 24 24" fill="none" stroke="#2bb673" stroke-width="2"><circle cx="12" cy="12" r="10"/></svg></symbol>
  <symbol id="rule-allowlist-icon" viewBox="0 0 24 24"><!-- check-circle-2 --><svg xmlns="http://www.w3.org/2000/svg" width="24" height="24" viewBox="0 0 24 24" fill="none" stroke="#2bb673" stroke-width="2"><circle cx="12" cy="12" r="10"/></svg></symbol>
  <symbol id="rule-blocklist-icon" viewBox="0 0 24 24"><!-- x-circle --><svg xmlns="http://www.w3.org/2000/svg" width="24" height="24" viewBox="0 0 24 24" fill="none" stroke="#e0544a" stroke-width="2"><circle cx="12" cy="12" r="10"/></svg></symbol>
  <symbol id="rule-conditional-icon" viewBox="0 0 24 24"><!-- git-branch --><svg xmlns="http://www.w3.org/2000/svg" width="24" height="24" viewBox="0 0 24 24" fill="none" stroke="currentColor" stroke-width="2"><circle cx="12" cy="12" r="10"/></svg></symbol>
  <symbol id="rule-escalation-icon" viewBox="0 0 24 24"><!-- arrow-up --><svg xmlns="http://www.w3.org/2000/svg" width="24" height="24" viewBox="0 0 24 24" fill="none" stroke="#f5a623" stroke-width="2"><circle cx="12" cy="12" r="10"/></svg></symbol>
  <symbol id="connector-canvas-icon" viewBox="0 0 24 24"><!-- book-open --><svg xmlns="http://www.w3.org/2000/svg" width="24" height="24" viewBox="0 0 24 24" fill="none" stroke="currentColor" stroke-width="2"><circle cx="12" cy="12" r="10"/></svg></symbol>
  <symbol id="connector-slack-icon" viewBox="0 0 24 24"><!-- send --><svg xmlns="http://www.w3.org/2000/svg" width="24" height="24" viewBox="0 0 24 24" fill="none" stroke="currentColor" stroke-width="2"><circle cx="12" cy="12" r="10"/></svg></symbol>
  <symbol id="connector-discord-icon" viewBox="0 0 24 24"><!-- headphones --><svg xmlns="http://www.w3.org/2000/svg" width="24" height="24" viewBox="0 0 24 24" fill="none" stroke="currentColor" stroke-width="2"><circle cx="12" cy="12" r="10"/></svg></symbol>
  <symbol id="connector-gmail-icon" viewBox="0 0 24 24"><!-- mail --><svg xmlns="http://www.w3.org/2000/svg" width="24" height="24" viewBox="0 0 24 24" fill="none" stroke="currentColor" stroke-width="2"><circle cx="12" cy="12" r="10"/></svg></symbol>
  <symbol id="connector-calendar-icon" viewBox="0 0 24 24"><!-- calendar-days --><svg xmlns="http://www.w3.org/2000/svg" width="24" height="24" viewBox="0 0 24 24" fill="none" stroke="currentColor" stroke-width="2"><circle cx="12" cy="12" r="10"/></svg></symbol>
  <symbol id="connector-nfc-icon" viewBox="0 0 24 24"><!-- radio --><svg xmlns="http://www.w3.org/2000/svg" width="24" height="24" viewBox="0 0 24 24" fill="none" stroke="currentColor" stroke-width="2"><circle cx="12" cy="12" r="10"/></svg></symbol>
  <symbol id="connector-health-icon" viewBox="0 0 24 24"><!-- heart --><svg xmlns="http://www.w3.org/2000/svg" width="24" height="24" viewBox="0 0 24 24" fill="none" stroke="currentColor" stroke-width="2"><circle cx="12" cy="12" r="10"/></svg></symbol>
  <symbol id="connector-api-icon" viewBox="0 0 24 24"><!-- code --><svg xmlns="http://www.w3.org/2000/svg" width="24" height="24" viewBox="0 0 24 24" fill="none" stroke="currentColor" stroke-width="2"><circle cx="12" cy="12" r="10"/></svg></symbol>
  <symbol id="status-active-icon" viewBox="0 0 24 24"><!-- check-circle --><svg xmlns="http://www.w3.org/2000/svg" width="24" height="24" viewBox="0 0 24 24" fill="none" stroke="#2bb673" stroke-width="2" stroke-linecap="round" stroke-linejoin="round"><path d="M22 11.08V12a10 10 0 1 1-5.93-9.14"/><polyline points="22 4 12 14.01 9 11.01"/></svg></symbol>
  <symbol id="status-blocked-icon" viewBox="0 0 24 24"><!-- slash-circle --><svg xmlns="http://www.w3.org/2000/svg" width="24" height="24" viewBox="0 0 24 24" fill="none" stroke="#e0544a" stroke-width="2"><circle cx="12" cy="12" r="10"/></svg></symbol>
  <symbol id="status-warning-icon" viewBox="0 0 24 24"><!-- alert-circle --><svg xmlns="http://www.w3.org/2000/svg" width="24" height="24" viewBox="0 0 24 24" fill="none" stroke="#f5a623" stroke-width="2"><circle cx="12" cy="12" r="10"/></svg></symbol>
  <symbol id="status-error-icon" viewBox="0 0 24 24"><!-- x-circle --><svg xmlns="http://www.w3.org/2000/svg" width="24" height="24" viewBox="0 0 24 24" fill="none" stroke="#e0544a" stroke-width="2"><circle cx="12" cy="12" r="10"/></svg></symbol>
  <symbol id="status-loading-icon" viewBox="0 0 24 24"><!-- loader --><svg xmlns="http://www.w3.org/2000/svg" width="24" height="24" viewBox="0 0 24 24" fill="none" stroke="#6ea8ff" stroke-width="2"><circle cx="12" cy="12" r="10"/></svg></symbol>
  <symbol id="status-paused-icon" viewBox="0 0 24 24"><!-- pause --><svg xmlns="http://www.w3.org/2000/svg" width="24" height="24" viewBox="0 0 24 24" fill="none" stroke="currentColor" stroke-width="2"><circle cx="12" cy="12" r="10"/></svg></symbol>
  <symbol id="status-offline-icon" viewBox="0 0 24 24"><!-- wifi-off --><svg xmlns="http://www.w3.org/2000/svg" width="24" height="24" viewBox="0 0 24 24" fill="none" stroke="#f5a623" stroke-width="2"><circle cx="12" cy="12" r="10"/></svg></symbol>
  <symbol id="status-syncing-icon" viewBox="0 0 24 24"><!-- refresh-cw --><svg xmlns="http://www.w3.org/2000/svg" width="24" height="24" viewBox="0 0 24 24" fill="none" stroke="#6ea8ff" stroke-width="2"><circle cx="12" cy="12" r="10"/></svg></symbol>
  <symbol id="status-lock-icon" viewBox="0 0 24 24"><!-- lock --><svg xmlns="http://www.w3.org/2000/svg" width="24" height="24" viewBox="0 0 24 24" fill="none" stroke="currentColor" stroke-width="2" stroke-linecap="round" stroke-linejoin="round"><rect x="3" y="11" width="18" height="11" rx="2" ry="2"/><path d="M7 11V7a5 5 0 0 1 10 0v4"/></svg></symbol>
  <symbol id="status-unlock-icon" viewBox="0 0 24 24"><!-- unlock --><svg xmlns="http://www.w3.org/2000/svg" width="24" height="24" viewBox="0 0 24 24" fill="none" stroke="currentColor" stroke-width="2"><circle cx="12" cy="12" r="10"/></svg></symbol>
  <symbol id="status-verified-icon" viewBox="0 0 24 24"><!-- badge-check --><svg xmlns="http://www.w3.org/2000/svg" width="24" height="24" viewBox="0 0 24 24" fill="none" stroke="#2bb673" stroke-width="2"><circle cx="12" cy="12" r="10"/></svg></symbol>
  <symbol id="status-unverified-icon" viewBox="0 0 24 24"><!-- alert-triangle --><svg xmlns="http://www.w3.org/2000/svg" width="24" height="24" viewBox="0 0 24 24" fill="none" stroke="currentColor" stroke-width="2"><circle cx="12" cy="12" r="10"/></svg></symbol>
  <symbol id="achievement-streak-icon" viewBox="0 0 24 24"><!-- flame --><svg xmlns="http://www.w3.org/2000/svg" width="24" height="24" viewBox="0 0 24 24" fill="none" stroke="#ff6b3d" stroke-width="2"><circle cx="12" cy="12" r="10"/></svg></symbol>
  <symbol id="achievement-milestone-icon" viewBox="0 0 24 24"><!-- award --><svg xmlns="http://www.w3.org/2000/svg" width="24" height="24" viewBox="0 0 24 24" fill="none" stroke="#ff6b3d" stroke-width="2"><circle cx="12" cy="12" r="10"/></svg></symbol>
  <symbol id="achievement-balanced-icon" viewBox="0 0 24 24"><!-- yin-yang --><svg xmlns="http://www.w3.org/2000/svg" width="24" height="24" viewBox="0 0 24 24" fill="none" stroke="#2bb673" stroke-width="2"><circle cx="12" cy="12" r="10"/></svg></symbol>
  <symbol id="achievement-disciplined-icon" viewBox="0 0 24 24"><!-- medal --><svg xmlns="http://www.w3.org/2000/svg" width="24" height="24" viewBox="0 0 24 24" fill="none" stroke="#c94a21" stroke-width="2"><circle cx="12" cy="12" r="10"/></svg></symbol>
  <symbol id="achievement-connected-icon" viewBox="0 0 24 24"><!-- network --><svg xmlns="http://www.w3.org/2000/svg" width="24" height="24" viewBox="0 0 24 24" fill="none" stroke="#6ea8ff" stroke-width="2"><circle cx="12" cy="12" r="10"/></svg></symbol>
  <symbol id="achievement-early-bird-icon" viewBox="0 0 24 24"><!-- sunrise --><svg xmlns="http://www.w3.org/2000/svg" width="24" height="24" viewBox="0 0 24 24" fill="none" stroke="#ff8b65" stroke-width="2"><circle cx="12" cy="12" r="10"/></svg></symbol>
  <symbol id="action-add-icon" viewBox="0 0 24 24"><!-- plus --><svg xmlns="http://www.w3.org/2000/svg" width="24" height="24" viewBox="0 0 24 24" fill="none" stroke="currentColor" stroke-width="2"><circle cx="12" cy="12" r="10"/></svg></symbol>
  <symbol id="action-delete-icon" viewBox="0 0 24 24"><!-- trash-2 --><svg xmlns="http://www.w3.org/2000/svg" width="24" height="24" viewBox="0 0 24 24" fill="none" stroke="#e0544a" stroke-width="2"><circle cx="12" cy="12" r="10"/></svg></symbol>
  <symbol id="action-edit-icon" viewBox="0 0 24 24"><!-- edit-2 --><svg xmlns="http://www.w3.org/2000/svg" width="24" height="24" viewBox="0 0 24 24" fill="none" stroke="currentColor" stroke-width="2"><circle cx="12" cy="12" r="10"/></svg></symbol>
  <symbol id="action-copy-icon" viewBox="0 0 24 24"><!-- copy --><svg xmlns="http://www.w3.org/2000/svg" width="24" height="24" viewBox="0 0 24 24" fill="none" stroke="currentColor" stroke-width="2"><circle cx="12" cy="12" r="10"/></svg></symbol>
  <symbol id="action-download-icon" viewBox="0 0 24 24"><!-- download --><svg xmlns="http://www.w3.org/2000/svg" width="24" height="24" viewBox="0 0 24 24" fill="none" stroke="currentColor" stroke-width="2"><circle cx="12" cy="12" r="10"/></svg></symbol>
  <symbol id="action-share-icon" viewBox="0 0 24 24"><!-- share-2 --><svg xmlns="http://www.w3.org/2000/svg" width="24" height="24" viewBox="0 0 24 24" fill="none" stroke="currentColor" stroke-width="2"><circle cx="12" cy="12" r="10"/></svg></symbol>
  <symbol id="action-info-icon" viewBox="0 0 24 24"><!-- info --><svg xmlns="http://www.w3.org/2000/svg" width="24" height="24" viewBox="0 0 24 24" fill="none" stroke="#6ea8ff" stroke-width="2"><circle cx="12" cy="12" r="10"/></svg></symbol>
  <symbol id="action-help-icon" viewBox="0 0 24 24"><!-- help-circle --><svg xmlns="http://www.w3.org/2000/svg" width="24" height="24" viewBox="0 0 24 24" fill="none" stroke="#6ea8ff" stroke-width="2"><circle cx="12" cy="12" r="10"/></svg></symbol>
  <symbol id="mascot-happy-icon" viewBox="0 0 24 24"><!-- smile --><svg xmlns="http://www.w3.org/2000/svg" width="24" height="24" viewBox="0 0 24 24" fill="none" stroke="#ff6b3d" stroke-width="2"><circle cx="12" cy="12" r="10"/></svg></symbol>
  <symbol id="mascot-thinking-icon" viewBox="0 0 24 24"><!-- brain --><svg xmlns="http://www.w3.org/2000/svg" width="24" height="24" viewBox="0 0 24 24" fill="none" stroke="#ff6b3d" stroke-width="2"><circle cx="12" cy="12" r="10"/></svg></symbol>
  <symbol id="mascot-celebrating-icon" viewBox="0 0 24 24"><!-- star --><svg xmlns="http://www.w3.org/2000/svg" width="24" height="24" viewBox="0 0 24 24" fill="none" stroke="#ff6b3d" stroke-width="2"><circle cx="12" cy="12" r="10"/></svg></symbol>
  <symbol id="mobile-app-icon" viewBox="0 0 24 24"><!-- smartphone --><svg xmlns="http://www.w3.org/2000/svg" width="24" height="24" viewBox="0 0 24 24" fill="none" stroke="currentColor" stroke-width="2"><circle cx="12" cy="12" r="10"/></svg></symbol>
  <symbol id="mobile-permission-icon" viewBox="0 0 24 24"><!-- shield-alert --><svg xmlns="http://www.w3.org/2000/svg" width="24" height="24" viewBox="0 0 24 24" fill="none" stroke="#f5a623" stroke-width="2"><circle cx="12" cy="12" r="10"/></svg></symbol>
</svg>
