<svg xmlns="http://www.w3.org/2000/svg" viewBox="0 0 64 64" role="img" aria-labelledby="apple-health-title apple-health-desc">
  <title id="apple-health-title">Apple Health</title>
  <desc id="apple-health-desc">Apple Health logo - heart with ECG pulse line</desc>

  <defs>
    <!-- Apple Health red gradient -->
    <linearGradient id="healthGradient" x1="0%" y1="0%" x2="100%" y2="100%">
      <stop offset="0%" stop-color="#FF3B30"/>
      <stop offset="40%" stop-color="#FF5252"/>
      <stop offset="100%" stop-color="#FF6B6B"/>
    </linearGradient>

    <!-- Heart highlight gradient -->
    <linearGradient id="healthHighlight" x1="0%" y1="0%" x2="0%" y2="100%">
      <stop offset="0%" stop-color="#FF5A5A"/>
      <stop offset="50%" stop-color="#FF4D4D"/>
      <stop offset="100%" stop-color="#FF3B30"/>
    </linearGradient>

    <!-- Pulse line gradient -->
    <linearGradient id="pulseGradient" x1="0%" y1="0%" x2="100%" y2="0%">
      <stop offset="0%" stop-color="#FFFFFF" stop-opacity="0.9"/>
      <stop offset="50%" stop-color="#FFFFFF"/>
      <stop offset="100%" stop-color="#FFFFFF" stop-opacity="0.9"/>
    </linearGradient>

    <!-- Soft glow filter -->
    <filter id="healthGlow" x="-30%" y="-30%" width="160%" height="160%">
      <feDropShadow dx="0" dy="3" stdDeviation="3" flood-color="#FF3B30" flood-opacity="0.35"/>
    </filter>

    <!-- Inner shadow for depth -->
    <filter id="healthInnerShadow" x="-20%" y="-20%" width="140%" height="140%">
      <feGaussianBlur in="SourceAlpha" stdDeviation="1.5" result="blur"/>
      <feOffset dx="0" dy="1"/>
      <feComposite in2="SourceAlpha" operator="arithmetic" k2="-1" k3="1"/>
      <feColorMatrix type="matrix" values="0 0 0 0 1  0 0 0 0 0.5  0 0 0 0 0.5  0 0 0 0.3 0"/>
      <feBlend in2="SourceGraphic"/>
    </filter>
  </defs>

  <!-- Subtle background circle -->
  <circle cx="32" cy="32" r="30" fill="#FFF5F5" opacity="0.5"/>

  <!-- Main heart shape -->
  <g filter="url(#healthGlow)">
    <!-- Heart silhouette -->
    <path d="M32 52
             C32 52, 18 40, 18 28
             C18 20, 24 14, 32 20
             C40 14, 46 20, 46 28
             C46 40, 32 52, 32 52Z"
          fill="url(#healthGradient)"/>

    <!-- Heart left lobe highlight -->
    <path d="M26 26
             C24 22, 22 20, 22 18
             C22 16, 24 14, 26 16
             C26 18, 24 22, 24 24
             C24 26, 26 26, 26 26Z"
          fill="#FF7A7A"
          opacity="0.4"/>

    <!-- Heart right lobe highlight -->
    <path d="M38 26
             C40 22, 42 20, 42 18
             C42 16, 40 14, 38 16
             C38 18, 40 22, 40 24
             C40 26, 38 26, 38 26Z"
          fill="#FF7A7A"
          opacity="0.4"/>

    <!-- Center shadow for depth -->
    <ellipse cx="32" cy="32" rx="8" ry="10" fill="#E53232" opacity="0.15"/>
  </g>

  <!-- ECG Pulse line -->
  <g filter="url(#healthInnerShadow)">
    <path d="M12 32
             L22 32
             L26 26
             L30 38
             L34 22
             L38 42
             L42 30
             L52 30"
          fill="none"
          stroke="url(#pulseGradient)"
          stroke-width="2.5"
          stroke-linecap="round"
          stroke-linejoin="round"/>

    <!-- Pulse highlight -->
    <path d="M22 32 L26 26 L30 38"
          fill="none"
          stroke="#FFFFFF"
          stroke-width="1"
          stroke-linecap="round"
          stroke-linejoin="round"
          opacity="0.4"/>
  </g>

  <!-- Subtle accent dots -->
  <circle cx="10" cy="32" r="1.5" fill="#FF3B30" opacity="0.2"/>
  <circle cx="54" cy="32" r="1.5" fill="#FF3B30" opacity="0.2"/>
</svg>
